# xmcd
#
# Track frame offsets:
# 150
# 21982
# 32504
# 49059
# 59406
# 76503
# 102975
# 129607
# 149229
# 163026
# 168185
# 183785
# 197429
# 216521
# 239021
# 255070
# 269572
# 288757
# 302316
# 322588
#
# Disc length: 4467 seconds
#
#
# Revision: 0
# Processed by: cddbd v1.5.1PL0 Copyright (c) Steve Scherf et al.
# Submitted via: FreeRIP 2.70 
#
DISCID=0e117114
DTITLE=R. L. Burnside - Ass pocket of whiskey and come on in
DYEAR=1900
DGENRE=Blues
TTITLE0=Going Down South
TTITLE1=Boogie Chillen
TTITLE2=Poor Boy
TTITLE3=2 Brothers
TTITLE4=Snake Drive
TTITLE5=Shake em on down
TTITLE6=The criminal inside me
TTITLE7=walkin' blues
TTITLE8=Tojo told Hitler
TTITLE9=Been mistreated
TTITLE10=Come on in (live)
TTITLE11=Let my baby ride
TTITLE12=Don't stop honey
TTITLE13=It's bad you know
TTITLE14=Just like a woman
TTITLE15=Come on in (part 2)
TTITLE16=Rollin' tumblin (remix)
TTITLE17=Please don't stay
TTITLE18=Shuck dub
TTITLE19=Come on in (part 3)
EXTD=
EXTT0=
EXTT1=
EXTT2=
EXTT3=
EXTT4=
EXTT5=
EXTT6=
EXTT7=
EXTT8=
EXTT9=
EXTT10=
EXTT11=
EXTT12=
EXTT13=
EXTT14=
EXTT15=
EXTT16=
EXTT17=
EXTT18=
EXTT19=
PLAYORDER=
